<?xml version="1.0" encoding="utf-8"?>
<!-- Generator: Adobe Illustrator 26.3.1, SVG Export Plug-In . SVG Version: 6.00 Build 0)  -->
<svg version="1.1" id="Layer_1" xmlns="http://www.w3.org/2000/svg" xmlns:xlink="http://www.w3.org/1999/xlink" width="347.5px" height="65px"
	 viewBox="0 0 347.5 65" style="enable-background:new 0 0 347.5 65;" xml:space="preserve">
<style type="text/css">
	.st0{enable-background:new    ;}
	.st1{fill:#006EF9;}
	.st2{fill:#FFFFFF;}
	.st3{fill:#FF1887;}
	.st4{fill:#1C80FF;}
	.st5{fill:#FF8D00;}
	.st6{fill:#FFD41C;}
</style>
<g id="Group_1970" transform="translate(3 2.228)">
	<g id="Group_34" transform="translate(53.467 -0.228)">
		<g class="st0">
			<path class="st1" d="M-2.1,45V16.8h13.6c1.8,0,3.3,0.2,4.4,0.6c1.1,0.4,2,1,2.6,1.8c0.6,0.8,1,1.8,1.2,3c0.2,1.2,0.3,2.5,0.3,4.1
				c0,1.4-0.1,2.7-0.3,3.8s-0.6,2.2-1.2,3c-0.6,0.8-1.5,1.5-2.6,2s-2.7,0.7-4.6,0.7H5V45H-2.1z M5,30.4h3.6c1,0,1.8-0.1,2.3-0.2
				c0.6-0.1,1-0.3,1.3-0.6c0.3-0.3,0.5-0.7,0.5-1.2c0.1-0.5,0.1-1.2,0.1-2.1c0-0.9,0-1.6-0.1-2.1c-0.1-0.5-0.2-1-0.5-1.3
				c-0.3-0.3-0.7-0.5-1.2-0.6c-0.5-0.1-1.3-0.1-2.3-0.1H5V30.4z"/>
			<path class="st1" d="M24.3,45V16.8h7.1v22.5h11V45H24.3z"/>
			<path class="st1" d="M43.7,45l8.9-28.2h9.7l9,28.2h-7.2l-1.7-5.5h-10L50.7,45H43.7z M53.9,34.1h7l-3.4-11.2h-0.3L53.9,34.1z"/>
			<path class="st1" d="M78.2,45v-9.7l-9.4-18.5h7.3l5.6,11.8h0.3l5.5-11.8h7.2l-9.4,18.5V45H78.2z"/>
			<path class="st1" d="M99.5,35.4c-0.1-1.4-0.3-2.8-0.4-4.2c-0.1-1.4-0.3-2.8-0.4-4.2c-0.1-1.3-0.2-2.6-0.3-3.7
				c-0.1-1.1-0.1-2.1-0.2-3s-0.1-1.4-0.1-1.8v-1.8h7.6v1.8c0,0.4,0,1-0.1,1.8s-0.1,1.8-0.2,3c-0.1,1.1-0.2,2.4-0.3,3.7
				c-0.1,1.3-0.3,2.7-0.4,4.2c-0.1,1.4-0.3,2.8-0.4,4.2H99.5z M98.4,45v-5.9h7V45H98.4z"/>
		</g>
		<g class="st0">
			<path class="st2" d="M123.3,45V16.8H136c1.9,0,3.3,0.3,4.4,0.9s1.8,1.4,2.2,2.5c0.4,1.1,0.6,2.3,0.6,3.7c0,1.2-0.2,2.2-0.5,3.1
				c-0.3,0.9-0.8,1.7-1.5,2.3c-0.7,0.6-1.6,1-2.8,1.2v0.2c1.5,0.2,2.6,0.7,3.3,1.5c0.7,0.7,1.2,1.6,1.4,2.5c0.2,1,0.3,2,0.3,3
				c0,0.9-0.1,1.8-0.3,2.7s-0.6,1.7-1.1,2.4c-0.5,0.7-1.3,1.3-2.4,1.7c-1,0.4-2.4,0.6-4,0.6H123.3z M125.3,29.8h10.3
				c1.2,0,2.3-0.2,3.1-0.6c0.8-0.4,1.5-1.1,1.9-1.9c0.4-0.8,0.7-1.9,0.7-3c0-1.3-0.2-2.3-0.5-3.2c-0.3-0.8-0.9-1.4-1.7-1.8
				c-0.8-0.4-2-0.6-3.5-0.6h-10.3V29.8z M125.3,43.2h10.4c1.5,0,2.7-0.2,3.5-0.6c0.9-0.4,1.5-1.1,1.8-1.9c0.4-0.9,0.5-2,0.5-3.2
				c0-1.3-0.2-2.4-0.6-3.3c-0.4-0.9-1-1.5-1.9-1.9s-2-0.6-3.4-0.6h-10.4V43.2z"/>
			<path class="st2" d="M161.6,45.3c-1.9,0-3.5-0.1-4.8-0.3s-2.3-0.6-3.1-1.2c-0.8-0.5-1.3-1.3-1.7-2.3c-0.4-1-0.6-2.1-0.8-3.6
				c-0.1-1.4-0.2-3.1-0.2-5.1V16.8h2v17.3c0,1.9,0.1,3.5,0.2,4.7c0.1,1.2,0.5,2.2,1,2.9c0.5,0.7,1.4,1.2,2.5,1.4s2.7,0.4,4.7,0.4
				c2,0,3.6-0.1,4.7-0.4c1.1-0.3,2-0.7,2.5-1.4c0.5-0.7,0.9-1.7,1-2.9c0.1-1.2,0.2-2.8,0.2-4.7V16.8h2v16.1c0,2-0.1,3.7-0.2,5.1
				c-0.1,1.4-0.4,2.6-0.7,3.6c-0.4,1-1,1.7-1.7,2.3c-0.8,0.5-1.8,0.9-3.1,1.2C165.1,45.2,163.5,45.3,161.6,45.3z"/>
			<path class="st2" d="M180.8,45V16.8h2V45H180.8z"/>
			<path class="st2" d="M191.9,45V16.8h2v26.4h14.1V45H191.9z"/>
			<path class="st2" d="M213.9,45V16.8h8.6c2.2,0,4,0.1,5.5,0.3s2.6,0.6,3.4,1.1c0.8,0.5,1.5,1.3,1.9,2.4c0.4,1.1,0.7,2.4,0.8,4.1
				c0.1,1.7,0.2,3.7,0.2,6.2s-0.1,4.6-0.2,6.2c-0.1,1.7-0.4,3-0.8,4.1c-0.4,1.1-1,1.9-1.9,2.4c-0.8,0.5-2,0.9-3.4,1.1
				c-1.4,0.2-3.3,0.3-5.5,0.3H213.9z M215.8,43.2h5.8c2,0,3.6,0,4.9-0.1c1.3-0.1,2.3-0.3,3.1-0.7s1.3-1,1.6-1.9
				c0.3-0.9,0.6-2.1,0.7-3.6c0.1-1.6,0.2-3.5,0.2-5.9s-0.1-4.4-0.2-5.9c-0.1-1.6-0.3-2.8-0.7-3.6c-0.4-0.9-0.9-1.5-1.7-1.9
				s-1.8-0.6-3.1-0.7c-1.3-0.1-2.9-0.1-4.9-0.1h-5.8V43.2z"/>
			<path class="st2" d="M242.2,45V16.8h17.7v1.8h-15.7v11.2H258v1.8h-13.8v11.6h15.7V45H242.2z"/>
			<path class="st2" d="M266.8,45V16.8h12.7c1.7,0,3.1,0.2,4.1,0.7c1,0.5,1.7,1.1,2.2,1.8s0.8,1.7,0.9,2.6c0.1,1,0.2,2,0.2,3
				c0,1.1-0.1,2.2-0.3,3.2c-0.2,1.1-0.6,2-1.2,2.8c-0.6,0.8-1.7,1.4-3.1,1.8l4.9,12.2H285l-4.9-12.3l0.7,0.3
				c-0.2,0.1-0.4,0.1-0.7,0.1s-0.8,0-1.4,0h-10V45H266.8z M268.8,31.3h9.8c1.5,0,2.6-0.1,3.5-0.5c0.8-0.3,1.5-0.7,1.9-1.3
				c0.4-0.6,0.7-1.2,0.8-2c0.1-0.8,0.2-1.6,0.2-2.6c0-1,0-1.8-0.1-2.6s-0.3-1.4-0.7-2c-0.4-0.6-0.9-1-1.7-1.3s-1.9-0.5-3.2-0.5
				h-10.3V31.3z"/>
		</g>
	</g>
	<g id="Group_9" transform="translate(-3 4)">
		<path id="Path_16" class="st3" d="M11,52.5L0,41.3v-36l11-4.6L11,52.5z"/>
		<path id="Path_17" class="st4" d="M41.4,12.9l-4.7,11L13.2,0h15.3L41.4,12.9z"/>
		<path id="Path_18" class="st5" d="M13,34V21.9l15.4-6.4l8.3,8.5L13,34z"/>
		<path id="Path_19" class="st6" d="M11,0.7l8.3,8.5L11,12.6L11,0.7z"/>
	</g>
</g>
</svg>
